<svg version="1.1" xmlns="http://www.w3.org/2000/svg" viewBox="-66.05047840536184 -101.51566193881422 134.13215755951273 202.57028549866902" fill="none" stroke="black" stroke-width="0.6%" vector-effect="non-scaling-stroke">
    <path d="M -44.90416 -87.99463 A 65 40.52054 360 0 1 67.08168 -59.99512 A 65 40.52054 360 0 1 -62.91832 -59.99512 A 65 40.52054 360 0 1 -44.90416 -87.99463 Z" />
    <path d="M -21.30657 16.90687 A 65 40.52054 360 0 1 -57.44953 -4.63121 L -65.05048 0.32566 L -28.90752 21.86375 L -21.30657 16.90687 L -21.30657 95.09775 A 65 40.52054 180 0 0 67.08168 57.29119" />
    <path d="M -28.90752 100.05462 L -21.30657 95.09775" />
    <path d="M -39.93112 93.48551 L -28.90752 100.05462 L -28.90752 21.86375" />
    <path d="M -39.93112 89.17351 L -52.64489 81.59721" />
    <path d="M -52.64489 84.1844 L -54.02688 85.08565 L -54.02688 38.17113 L -39.93112 46.57098" />
    <path d="M -65.05048 78.51654 L -54.02688 85.08565" />
    <path d="M -65.05048 78.51654 L -65.05048 0.32566" />
    <path d="M -39.93112 93.48551 L -39.93112 46.57098" />
    <path d="M -52.64489 84.1844 L -52.64489 38.99468" />
    <path d="M -62.91832 -59.99512 L -62.91832 -1.0648" />
    <path d="M 67.08168 -59.99512 L 67.08168 57.29119" />
</svg>