<svg version="1.1" xmlns="http://www.w3.org/2000/svg" viewBox="-75.32864519201902 -99.02290673449409 149.91289074105333 204.5235905094923" fill="none" stroke="black" stroke-width="0.6%" vector-effect="non-scaling-stroke">
    <path d="M -69.73422 80.17074 L -59.09854 86.53764 L -59.09854 37.77059 L -45.49882 45.91187" />
    <path d="M -45.49882 94.67892 L -45.49882 45.91187" />
    <path d="M -45.49882 94.67892 L -34.86313 101.04582 L -26.97986 96.57659 A 65 37.86673 180 0 0 5.65004 99.40377 L 14.16426 104.50068 A 75 43.69238 180 0 0 73.58424 61.76144" />
    <path d="M -34.86313 101.04582 L -34.86313 19.76741 L -26.97986 15.29818 A 65 37.86673 360 0 1 -61.85095 -5.5769 L -69.73422 -1.10767 L -34.86313 19.76741" />
    <path d="M -69.73422 80.17074 L -69.73422 -1.10767" />
    <path d="M -74.32864 51.52567 L -69.73422 54.27606" />
    <path d="M -57.66522 85.72505 L -59.09854 86.53764" />
    <path d="M -45.49882 90.50236 L -57.66522 83.21911" />
    <path d="M -57.66522 85.72505 L -57.66522 38.62863" />
    <path d="M -26.97986 15.29818 L -26.97986 96.57659" />
    <path d="M 63.58424 59.32308 A 65 37.86673 360 0 1 57.31672 75.5462" />
    <path d="M 57.31672 75.50556 L 57.31672 75.5462" />
    <path d="M 57.31672 75.50556 L 57.16283 75.11638 L 57.00716 74.72649 L 56.84974 74.33588 L 56.69055 73.94457 L 56.52962 73.55258 L 56.36693 73.1599 L 56.20249 72.76657 L 56.03632 72.37259 L 55.86842 71.97796 L 55.69878 71.58271 L 55.52742 71.18684 L 55.35434 70.79037 L 55.17955 70.3933 L 55.00305 69.99566 A 65 37.86673 360 0 1 54.99808 70.00071 L 54.81983 70.75952 L 54.63988 71.51773 L 54.45824 72.27533 L 54.27491 73.0323 L 54.0899 73.7886 L 53.90321 74.54422 L 53.71486 75.29914 L 53.52484 76.05333 L 53.33316 76.80677 L 53.13983 77.55943 L 52.94485 78.3113 L 52.74823 79.06235 L 52.54997 79.81255 L 52.35009 80.56189 L 52.35009 80.60253 A 65 37.86673 360 0 1 42.50815 87.23573" />
    <path d="M 29.31643 91.88724 L 29.03104 91.45317 L 28.7449 91.0181 L 28.45802 90.58204 L 28.17039 90.14501 L 27.88203 89.70701 L 27.59295 89.26806 L 27.30315 88.82817 L 27.01264 88.38734 L 26.72142 87.9456 L 26.42951 87.50294 L 26.1369 87.05938 L 25.84362 86.61494 L 25.54966 86.16961 L 25.25503 85.72343 A 65 37.86673 360 0 1 25.24591 85.72582 L 24.96106 86.30537 L 24.67561 86.88411 L 24.38955 87.46203 L 24.10289 88.03911 L 23.81565 88.61535 L 23.52783 89.19072 L 23.23943 89.76521 L 22.95047 90.33882 L 22.66094 90.91153 L 22.37086 91.48332 L 22.08023 92.05418 L 21.78906 92.6241 L 21.49735 93.19306 L 21.20512 93.76106" />
    <path d="M 8.73691 91.03555 A 65 37.86673 360 0 1 6.9004 91.18912 L 6.18374 91.59542 L 14.16426 96.37284 L 14.16426 104.50068" />
    <path d="M 6.18374 96.93012 A 65 37.86673 360 0 1 5.65004 96.96542 L 5.65004 99.40377" />
    <path d="M -46.74817 -87.29378 A 65 37.86673 360 0 1 63.58424 -60.15618 L 63.58424 59.32308" />
    <path d="M 63.58424 -60.15618 A 65 37.86673 360 0 1 -66.41576 -60.15618 L -66.41576 -2.989" />
    <path d="M -66.41576 -60.15618 A 65 37.86673 360 0 1 -46.74817 -87.29378" />
    <path d="M 63.58424 40.61513 A 72.5 42.23596 360 0 1 70.91961 56.47834" />
    <path d="M 55.57551 74.96575 L 57.31672 75.5462" />
    <path d="M 28.90831 91.49339 L 29.2305 91.91063" />
    <path d="M 55.57551 74.92511 L 55.57551 74.96575" />
    <path d="M 55.57551 74.92511 L 57.31672 75.50556" />
    <path d="M 55.57551 74.92511 L 55.49976 74.73226 L 55.42356 74.53923 L 55.34691 74.34601 L 55.26981 74.15261 L 55.19226 73.95903 L 55.11426 73.76527 L 55.03582 73.57132 L 54.95693 73.37721 L 54.87759 73.18291 L 54.79781 72.98844 L 54.71759 72.7938 L 54.63692 72.59899 L 54.5558 72.40401 L 54.47425 72.20886" />
    <path d="M 28.90831 91.45275 L 28.90831 91.49339" />
    <path d="M 28.90831 91.45275 L 29.25643 91.90358" />
    <path d="M 28.90831 91.45275 L 28.6476 91.05594 L 28.38623 90.65824 L 28.12419 90.25967 L 27.86149 89.86022 L 27.59815 89.45992 L 27.33415 89.05877 L 27.06952 88.65677 L 26.80426 88.25394 L 26.53837 87.85028 L 26.27185 87.44581 L 26.00473 87.04054 L 25.73699 86.63447 L 25.46865 86.22761 L 25.19971 85.81997" />
    <path d="M 14.94961 94.7547 L 8.73691 91.03555" />
    <path d="M 14.94961 94.77945 L 14.94961 94.7547" />
    <path d="M -74.32864 43.39783 L -69.73422 46.14822" />
    <path d="M -69.73422 44.05994 L -71.53069 42.98451 L -71.58796 43.01697 A 72.5 42.23596 360 0 1 -69.73422 39.49709" />
    <path d="M 63.58424 34.92564 A 72.5 42.23596 360 0 1 71.08424 53.63359 A 72.5 42.23596 360 0 1 14.89234 94.78717 L 14.94961 94.7547" />
    <path d="M -74.32864 43.39783 A 75 43.69238 0 0 1 -69.73422 35.60618" />
    <path d="M 63.58424 31.83601 A 75 43.69238 0 0 1 73.58424 53.63359 L 73.58424 61.76144" />
    <path d="M 73.58424 53.63359 A 75 43.69238 0 0 1 14.16426 96.37284" />
    <path d="M 6.18374 97.28491 L 6.18374 91.59542" />
    <path d="M 6.18374 97.28491 L 5.65004 96.96542" />
    <path d="M -74.32864 43.39783 L -74.32864 51.52567" />
    <path d="M -45.35333 -86.45878 A 63 36.7016 360 0 1 61.58424 -60.15618 A 63 36.7016 360 0 1 -64.41576 -60.15618 A 63 36.7016 360 0 1 -45.35333 -86.45878 Z" />
</svg>