<svg version="1.1" xmlns="http://www.w3.org/2000/svg" viewBox="-76.00000100000001 -103.59871146448452 152.000002 213.19503204794069" fill="none" stroke="black" stroke-width="0.6%" vector-effect="non-scaling-stroke">
    <path d="M 65 30.77092 A 75 44.98207 360 0 1 75 53.21192 A 75 44.98207 360 0 1 -32.32233 93.80234" />
    <path d="M -32.32233 97.00306 L -32.32233 93.80234" />
    <path d="M -33.11657 96.7721 L -33.11657 93.57139 A 75 44.98207 360 0 1 -67.29259 73.07395" />
    <path d="M -67.29259 76.27466 L -67.29259 73.07395" />
    <path d="M -67.88225 72.33856 A 75 44.98207 360 0 1 -75 53.21192 A 75 44.98207 360 0 1 -67.88225 34.08528" />
    <path d="M -75 63.61425 A 75 44.98207 180 0 0 75 63.61425 L 75 53.21192" />
    <path d="M -67.88225 68.48229 A 72.5 43.48267 360 0 1 -72.5 53.21192 A 72.5 43.48267 360 0 1 -67.88225 37.94156" />
    <path d="M 65 33.95175 A 72.5 43.48267 360 0 1 72.5 53.21192 A 72.5 43.48267 360 0 1 51.26524 83.95881 A 72.5 43.48267 360 0 1 -30.44327 92.67536 L -32.32233 93.80234" />
    <path d="M -32.52691 97.12576 L -32.32233 97.00306" />
    <path d="M -26.70892 93.63636 L -24.74874 92.46071 A 65 38.98446 180 0 0 65 56.41264" />
    <path d="M -24.74874 12.44279 L -24.74874 92.46071" />
    <path d="M -32.52691 17.10783 L -24.74874 12.44279 A 65 38.98446 360 0 1 -60.10408 -8.76196 L -67.88225 -4.09692 L -32.52691 17.10783 Z" />
    <path d="M -32.52691 97.12576 L -32.52691 17.10783" />
    <path d="M -33.11657 96.7721 L -32.52691 97.12576" />
    <path d="M -67.88225 75.92101 L -67.29259 76.27466" />
    <path d="M -60.57883 77.1006 L -67.29259 73.07395" />
    <path d="M -57.09887 80.007 L -57.09887 34.3777 L -43.31029 42.64755" />
    <path d="M -43.31029 88.0831 L -43.31029 42.64755" />
    <path d="M -33.11657 93.57139 L -39.83033 89.54473 A 72.5 43.48267 360 0 1 -60.57883 77.1006" />
    <path d="M -67.88225 75.92101 L -67.88225 -4.09692" />
    <path d="M -72.19245 57.21282 A 72.5 43.48267 360 0 1 -67.88225 45.94335" />
    <path d="M 65 41.95354 A 72.5 43.48267 360 0 1 72.19245 57.21282" />
    <path d="M -43.31029 86.41736 L -55.68466 78.9957" />
    <path d="M -45.96194 -91.18043 A 65 38.98446 360 0 1 65 -63.61425 L 65 56.41264" />
    <path d="M 65 -63.61425 A 65 38.98446 360 0 1 -65 -63.61425 L -65 -5.82558" />
    <path d="M -65 -63.61425 A 65 38.98446 360 0 1 -45.96194 -91.18043" />
    <path d="M -55.68466 81.05704 L -55.68466 35.22589" />
    <path d="M 41.39901 86.46732 L 43.75735 87.88176" />
    <path d="M 62.34552 67.43971 L 64.12152 67.60841 L 64.27796 67.01604 L 64.66905 61.93429 L 64.66905 61.13411 L 63.73044 64.68837 L 63.73044 65.48855 L 64.12152 67.60841" />
    <path d="M -44.54773 -90.33224 A 63 37.78494 360 0 1 63 -63.61425 A 63 37.78494 360 0 1 -63 -63.61425 A 63 37.78494 360 0 1 -44.54773 -90.33224 Z" />
    <path d="M 7.20518 96.39887 L 7.26169 96.47592" />
    <path d="M 6.88275 95.17793 L 7.20518 96.39887" />
    <path d="M 13.13131 95.83593 L 13.13131 95.03575 L 7.20518 95.59869 L 7.20518 96.39887" />
    <path d="M 13.03466 95.98605 L 13.13131 95.83593" />
    <path d="M 43.84062 86.45137 L 44.57407 87.50546" />
    <path d="M 42.73385 85.78757 L 43.84062 86.45137" />
    <path d="M 48.08326 83.9068 L 48.08326 83.10662 L 43.84062 85.65119 L 43.84062 86.45137" />
    <path d="M 47.20863 86.21292 L 48.08326 83.9068" />
    <path d="M 63.23279 65.44128 L 63.73044 65.48855" />
    <path d="M 64.52432 61.12036 L 64.66905 61.13411" />
    <path d="M 63.52558 64.66891 L 63.73044 64.68837" />
    <path d="M 47.71494 82.88571 L 48.08326 83.10662" />
    <path d="M 43.44147 85.4118 L 43.84062 85.65119" />
    <path d="M 13.01814 94.60723 L 13.13131 95.03575" />
    <path d="M 7.0905 95.16446 L 7.20518 95.59869" />
    <path d="M -75 63.61425 L -75 53.21192" />
</svg>