<svg version="1.1" xmlns="http://www.w3.org/2000/svg" viewBox="-70.64770803732009 -103.90607027469446 142.00000200000002 210.49274596697467" fill="none" stroke="black" stroke-width="0.6%" vector-effect="non-scaling-stroke">
    <path d="M 65.35229 35.46819 A 70 43.73559 0 0 1 70.35229 51.70082 A 70 43.73559 0 0 1 -27.97552 91.69514" />
    <path d="M -27.97552 94.8183 L -27.97552 91.69514" />
    <path d="M -42.75453 86.1598 A 70 43.73559 0 0 1 -55.40673 78.14173 L -55.18292 78.00089 L -55.18292 36.03761" />
    <path d="M -55.40673 81.26489 L -55.40673 78.14173" />
    <path d="M -67.41377 62.66164 A 70 43.73559 0 0 1 -69.64771 51.70082 A 70 43.73559 0 0 1 -67.41377 40.73999" />
    <path d="M -69.64771 61.85108 A 70 43.73559 180 0 0 -67.41377 72.8119" />
    <path d="M -65.67434 76.37649 A 70 43.73559 180 0 0 70.35229 61.85108 L 70.35229 51.70082" />
    <path d="M 65.35229 40.32939 A 67.5 42.17361 0 0 1 67.85229 51.70082 A 67.5 42.17361 0 0 1 48.25155 81.41575 A 67.5 42.17361 0 0 1 -26.08455 90.50523 L -27.97552 91.69514" />
    <path d="M -31.93284 97.30847 L -27.97552 94.8183" />
    <path d="M -24.1824 14.3525 L -24.1824 90.98989" />
    <path d="M -31.93284 19.22952 L -24.1824 14.3525 A 65 40.61162 0 0 1 -59.66333 -7.65856 L -67.41377 -2.78154 L -31.93284 19.22952 Z" />
    <path d="M -31.93284 97.30847 L -31.93284 19.22952" />
    <path d="M -42.75453 90.59509 L -31.93284 97.30847" />
    <path d="M -42.75453 84.15436 A 67.5 42.17361 0 0 1 -55.18292 75.67281" />
    <path d="M -42.75453 90.59509 L -42.75453 43.74772" />
    <path d="M -55.40673 81.26489 L -56.59209 82.01078 L -56.59209 35.16341 L -42.75453 43.74772" />
    <path d="M -67.41377 75.29741 L -56.59209 82.01078" />
    <path d="M -67.41377 75.29741 L -67.41377 -2.78154" />
    <path d="M 65.35229 48.13729 A 67.5 42.17361 0 0 1 67.56247 55.60476" />
    <path d="M 57.68066 73.96409 A 65 40.61162 180 0 0 65.35229 54.82397" />
    <path d="M -45.77292 -90.90882 A 65 40.61162 0 0 1 65.35229 -62.29445 L 65.35229 54.82397" />
    <path d="M 65.35229 -62.29445 A 65 40.61162 0 0 1 -64.64771 -62.29445 L -64.64771 -4.52211" />
    <path d="M -64.64771 -62.29445 A 65 40.61162 0 0 1 -45.77292 -90.90882" />
    <path d="M 62.90086 65.872 L 63.52312 65.93216 L 63.67603 65.31472 L 63.80273 63.6387" />
    <path d="M -44.35368 -90.02838 A 63 39.36204 0 0 1 63.35229 -62.29445 A 63 39.36204 0 0 1 -62.64771 -62.29445 A 63 39.36204 0 0 1 -44.35368 -90.02838 Z" />
    <path d="M 63.32188 64.89521 L 63.52312 65.93216" />
    <path d="M -69.64771 61.85108 L -69.64771 51.70082" />
</svg>