<svg version="1.1" xmlns="http://www.w3.org/2000/svg" viewBox="-66.0585427513602 -101.51565106248961 134.13148748367303 202.5707687352171" fill="none" stroke="black" stroke-width="0.6%" vector-effect="non-scaling-stroke">
    <path d="M -44.91378 -87.9939 A 65 40.52102 360 0 1 67.07294 -59.99463 A 65 40.52102 360 0 1 -62.92706 -59.99463 A 65 40.52102 360 0 1 -44.91378 -87.9939 Z" />
    <path d="M -21.31411 16.9078 A 65 40.52102 360 0 1 -57.45775 -4.6301 L -65.05854 0.32693 L -28.91491 21.86483 L -21.31411 16.9078 L -21.31411 95.09809 A 65 40.52102 180 0 0 67.07294 57.2908" />
    <path d="M -28.91491 100.05512 L -21.31411 95.09809" />
    <path d="M -39.93872 93.48606 L -28.91491 100.05512 L -28.91491 21.86483" />
    <path d="M -39.93872 89.17409 L -52.65277 81.59782" />
    <path d="M -52.65277 84.185 L -54.03473 85.08628 L -54.03473 38.17211 L -39.93872 46.57189" />
    <path d="M -65.05854 78.51722 L -54.03473 85.08628" />
    <path d="M -65.05854 78.51722 L -65.05854 0.32693" />
    <path d="M -39.93872 93.48606 L -39.93872 46.57189" />
    <path d="M -52.65277 84.185 L -52.65277 38.99561" />
    <path d="M -62.92706 -59.99463 L -62.92706 -1.06316" />
    <path d="M 67.07294 -59.99463 L 67.07294 57.2908" />
</svg>