<svg version="1.1" xmlns="http://www.w3.org/2000/svg" viewBox="-70.64770803732009 -103.90607027469446 142.00000200000002 210.49274596697467" fill="none" stroke="black" stroke-width="0.6%" vector-effect="non-scaling-stroke">
    <path d="M -67.41377 75.29741 L -56.59209 82.01078 L -56.59209 35.16341 L -42.75453 43.74772" />
    <path d="M -42.75453 90.59509 L -42.75453 43.74772" />
    <path d="M -42.75453 90.59509 L -31.93284 97.30847 L -31.93284 19.22952 L -24.1824 14.3525 A 65 40.61162 0 0 1 -59.66333 -7.65856 L -67.41377 -2.78154 L -31.93284 19.22952" />
    <path d="M -67.41377 75.29741 L -67.41377 -2.78154" />
    <path d="M -55.40673 81.26489 L -56.59209 82.01078" />
    <path d="M -55.40673 78.14173 L -55.18292 78.00089 L -55.18292 36.03761" />
    <path d="M -55.40673 81.26489 L -55.40673 78.14173" />
    <path d="M -31.93284 97.30847 L -27.97552 94.8183 L -27.97552 91.69514" />
    <path d="M -26.08455 90.50523 L -27.97552 91.69514" />
    <path d="M -24.1824 14.3525 L -24.1824 90.98989" />
    <path d="M 65.35229 35.46819 A 70 43.73559 0 0 1 70.35229 51.70082 A 70 43.73559 0 0 1 -27.97552 91.69514" />
    <path d="M -42.75453 86.1598 A 70 43.73559 0 0 1 -55.40673 78.14173" />
    <path d="M -67.41377 62.66164 A 70 43.73559 0 0 1 -69.64771 51.70082 A 70 43.73559 0 0 1 -67.41377 40.73999" />
    <path d="M -69.64771 61.85108 A 70 43.73559 180 0 0 -67.41377 72.8119" />
    <path d="M -65.67434 76.37649 A 70 43.73559 180 0 0 70.35229 61.85108 L 70.35229 51.70082" />
    <path d="M -42.75453 84.15436 A 67.5 42.17361 0 0 1 -55.18292 75.67281" />
    <path d="M 65.35229 40.32939 A 67.5 42.17361 0 0 1 67.85229 51.70082 A 67.5 42.17361 0 0 1 48.25155 81.41575 A 67.5 42.17361 0 0 1 -26.08455 90.50523" />
    <path d="M 65.35229 48.13729 A 67.5 42.17361 0 0 1 67.56247 55.60476" />
    <path d="M 57.68066 73.96409 A 65 40.61162 180 0 0 65.35229 54.82397" />
    <path d="M -45.77292 -90.90882 A 65 40.61162 0 0 1 65.35229 -62.29445 L 65.35229 54.82397" />
    <path d="M 65.35229 -62.29445 A 65 40.61162 0 0 1 -64.64771 -62.29445 L -64.64771 -4.52211" />
    <path d="M -64.64771 -62.29445 A 65 40.61162 0 0 1 -45.77292 -90.90882" />
    <path d="M 59.55405 69.20932 L 59.40571 68.85809 L 59.25559 68.50612 L 59.10369 68.15344 L 58.95001 67.80004 L 58.79457 67.44595 L 58.63736 67.09117 L 58.4784 66.73571 L 58.31767 66.37958 L 58.1552 66.0228 L 57.99098 65.66538 L 57.82503 65.30732 L 57.65734 64.94864 L 57.48791 64.58934 L 57.31677 64.22945 A 65 40.61162 0 0 1 57.31195 64.23492 L 57.13903 64.98591 L 56.96441 65.73628 L 56.78807 66.48601 L 56.61003 67.23509 L 56.43029 67.98348 L 56.24885 68.73117 L 56.06573 69.47813 L 55.88093 70.22435 L 55.69445 70.96979 L 55.5063 71.71444 L 55.31649 72.45827 L 55.12501 73.20126 L 54.93189 73.94339 L 54.73711 74.68464 L 54.73711 74.76272" />
    <path d="M 59.55405 69.20932 L 59.55405 69.2874 A 65 40.61162 0 0 1 54.73711 74.76272" />
    <path d="M 32.47393 87.7487 L 32.16296 87.30422 L 31.85103 86.85845 L 31.53816 86.41141 L 31.22434 85.96311 L 30.90959 85.51357 L 30.59392 85.06279 L 30.27733 84.61079 L 29.95984 84.15758 L 29.64146 83.70319 L 29.32219 83.24761 L 29.00205 82.79087 L 28.68104 82.33298 L 28.35918 81.87395 L 28.03647 81.4138 A 65 40.61162 0 0 1 28.02742 81.41646 L 27.70386 82.06665 L 27.37947 82.71572 L 27.05426 83.36363 L 26.72824 84.01038 L 26.40143 84.65594 L 26.07384 85.30029 L 25.74546 85.94342 L 25.41632 86.5853 L 25.08643 87.22591 L 24.75578 87.86524 L 24.4244 88.50327 L 24.0923 89.13997 L 23.75947 89.77533 L 23.42594 90.40933 L 23.42594 90.4874" />
    <path d="M 32.47393 87.7487 L 32.47393 87.82678 A 65 40.61162 0 0 1 23.42594 90.4874" />
    <path d="M -44.35368 -90.02838 A 63 39.36204 0 0 1 63.35229 -62.29445 A 63 39.36204 0 0 1 -62.64771 -62.29445 A 63 39.36204 0 0 1 -44.35368 -90.02838 Z" />
    <path d="M 57.796 68.60556 L 57.72881 68.44535 L 57.66124 68.28497 L 57.59329 68.12444 L 57.52495 67.96376 L 57.45623 67.80291 L 57.38712 67.64192 L 57.31764 67.48076 L 57.24777 67.31946 L 57.17752 67.158 L 57.10689 66.99639 L 57.03587 66.83463 L 56.96448 66.67273 L 56.89271 66.51067 L 56.82056 66.34847" />
    <path d="M 57.796 68.60556 L 59.55405 69.20932" />
    <path d="M 57.796 68.6446 L 56.38741 68.16085" />
    <path d="M 57.796 68.60556 L 57.796 68.6446" />
    <path d="M 56.37869 68.19689 L 59.55405 69.2874" />
    <path d="M 31.61963 86.6146 L 31.36581 86.25177 L 31.11133 85.88804 L 30.85618 85.52343 L 30.60038 85.15794 L 30.34393 84.79158 L 30.08683 84.42436 L 29.82909 84.05628 L 29.57073 83.68736 L 29.31173 83.3176 L 29.05211 82.94701 L 28.79188 82.5756 L 28.53104 82.20337 L 28.26959 81.83034 L 28.00754 81.4565" />
    <path d="M 31.61963 86.6146 L 32.47393 87.7487" />
    <path d="M 31.61963 86.65364 L 27.88714 81.69869" />
    <path d="M 31.61963 86.6146 L 31.61963 86.65364" />
    <path d="M 27.87545 81.7222 L 32.47393 87.82678" />
    <path d="M -69.64771 61.85108 L -69.64771 51.70082" />
</svg>