<svg version="1.1" xmlns="http://www.w3.org/2000/svg" viewBox="-70.64770663351862 -103.90598355646239 142.00000200000002 210.4923628821523" fill="none" stroke="black" stroke-width="0.6%" vector-effect="non-scaling-stroke">
    <path d="M -67.4139 75.29842 L -56.59226 82.01129 L -56.59226 35.16156 L -42.75475 43.74523" />
    <path d="M -42.75475 90.59496 L -42.75475 43.74523" />
    <path d="M -42.75475 90.59496 L -31.93311 97.30783 L -31.93311 19.22494 L -24.18263 14.34833 A 65 40.60842 360 0 1 -59.66343 -7.66109 L -67.4139 -2.78447 L -31.93311 19.22494" />
    <path d="M -67.4139 75.29842 L -67.4139 -2.78447" />
    <path d="M -55.4069 81.26546 L -56.59226 82.01129" />
    <path d="M -55.4069 78.14214 L -55.18308 78.00132 L -55.18308 36.0357" />
    <path d="M -55.4069 81.26546 L -55.4069 78.14214" />
    <path d="M -31.93311 97.30783 L -27.97577 94.81787 L -27.97577 91.69455" />
    <path d="M -26.0848 90.50475 L -27.97577 91.69455" />
    <path d="M -24.18263 14.34833 L -24.18263 90.98937" />
    <path d="M 65.35229 35.47211 A 70 43.73215 360 0 1 70.35229 51.70346 A 70 43.73215 360 0 1 -27.97577 91.69455" />
    <path d="M -42.75475 86.15961 A 70 43.73215 360 0 1 -55.4069 78.14214" />
    <path d="M -67.4139 62.6631 A 70 43.73215 360 0 1 -69.64771 51.70346 A 70 43.73215 360 0 1 -67.4139 40.74381" />
    <path d="M -69.64771 61.85423 A 70 43.73215 180 0 0 -67.4139 72.81388" />
    <path d="M -65.67519 76.37697 A 70 43.73215 180 0 0 70.35229 61.85423 L 70.35229 51.70346" />
    <path d="M -42.75475 84.15433 A 67.5 42.17028 360 0 1 -55.18308 75.67341" />
    <path d="M 65.35229 40.33293 A 67.5 42.17028 360 0 1 67.85229 51.70346 A 67.5 42.17028 360 0 1 48.25137 81.41616 A 67.5 42.17028 360 0 1 -26.0848 90.50475" />
    <path d="M 65.35229 48.14122 A 67.5 42.17028 360 0 1 67.5624 55.6076" />
    <path d="M 57.68312 73.9625 A 65 40.60842 180 0 0 65.35229 54.82677" />
    <path d="M -45.77274 -90.9098 A 65 40.60842 360 0 1 65.35229 -62.29756 L 65.35229 54.82677" />
    <path d="M 65.35229 -62.29756 A 65 40.60842 360 0 1 -64.64771 -62.29756 L -64.64771 -4.52497" />
    <path d="M -64.64771 -62.29756 A 65 40.60842 360 0 1 -45.77274 -90.9098" />
    <path d="M 62.90053 65.87466 L 63.52308 65.93485 L 63.676 65.31745 L 63.80275 63.64076" />
    <path d="M -44.35351 -90.02942 A 63 39.35893 360 0 1 63.35229 -62.29756 A 63 39.35893 360 0 1 -62.64771 -62.29756 A 63 39.35893 360 0 1 -44.35351 -90.02942 Z" />
    <path d="M 63.32178 64.89746 L 63.52308 65.93485" />
    <path d="M -69.64771 61.85423 L -69.64771 51.70346" />
</svg>