<svg version="1.1" xmlns="http://www.w3.org/2000/svg" viewBox="-75.34784089803493 -99.01200717904203 149.91466067471538 204.51999310479016" fill="none" stroke="black" stroke-width="0.6%" vector-effect="non-scaling-stroke">
    <path d="M -69.74846 46.16999 L -74.34784 43.41761 L -74.34784 51.54607 L -69.74846 54.29846" />
    <path d="M -74.34784 43.41761 A 75 43.68586 0 0 1 -69.74846 35.61874" />
    <path d="M 63.56682 31.85323 A 75 43.68586 0 0 1 73.56682 53.64757 A 75 43.68586 0 0 1 14.15423 96.37952 L 6.17288 91.60328" />
    <path d="M 6.88947 91.197 L 6.17288 91.60328" />
    <path d="M 8.72595 91.04335 A 65 37.86108 0 0 1 6.88947 91.197" />
    <path d="M 14.9393 94.76157 L 8.72595 91.04335" />
    <path d="M 14.88203 94.79404 L 14.9393 94.76157" />
    <path d="M -71.60722 43.03665 A 72.5 42.22966 0 0 1 -69.74846 39.50795" />
    <path d="M 63.56682 34.9424 A 72.5 42.22966 0 0 1 71.06682 53.64757 A 72.5 42.22966 0 0 1 14.88203 94.79404" />
    <path d="M -71.54996 43.00418 L -71.60722 43.03665" />
    <path d="M -69.74846 44.08224 L -71.54996 43.00418" />
    <path d="M 14.15423 96.37952 L 14.15423 104.50798 A 75 43.68586 180 0 0 73.56682 61.77603" />
    <path d="M -69.74846 80.1866 L -59.11168 86.55192 L -59.11168 37.78114 L -45.51055 45.9204" />
    <path d="M -57.6785 85.73937 L -59.11168 86.55192" />
    <path d="M -45.51055 90.51568 L -57.6785 83.23407" />
    <path d="M -45.51055 94.69119 L -34.87376 101.05651 L -34.87376 19.77187 L -26.99127 15.30285 L -26.99127 96.58749 A 65 37.86108 180 0 0 5.63913 99.41233 L 14.15423 104.50798" />
    <path d="M -34.87376 101.05651 L -26.99127 96.58749" />
    <path d="M -46.77029 -87.28182 A 65 37.86108 0 0 1 63.56682 -60.15093 L 63.56682 59.33749 A 65 37.86108 0 0 1 57.3021 75.55474" />
    <path d="M 63.56682 -60.15093 A 65 37.86108 0 0 1 -66.43318 -60.15093 L -66.43318 -2.97766" />
    <path d="M -66.43318 -60.15093 A 65 37.86108 0 0 1 -46.77029 -87.28182" />
    <path d="M 57.3021 75.5141 L 57.3021 75.55474" />
    <path d="M 57.3021 75.5141 L 57.14824 75.12486 L 56.99261 74.7349 L 56.83522 74.34422 L 56.67606 73.95285 L 56.51516 73.5608 L 56.3525 73.16806 L 56.1881 72.77467 L 56.02196 72.38062 L 55.85409 71.98593 L 55.68448 71.59062 L 55.51315 71.19469 L 55.34011 70.79816 L 55.16534 70.40103 L 54.98887 70.00332 A 65 37.86108 0 0 1 54.98391 70.00838 L 54.80569 70.76721 L 54.62577 71.52546 L 54.44416 72.28308 L 54.26086 73.04008 L 54.07588 73.79641 L 53.88922 74.55206 L 53.7009 75.307 L 53.51091 76.06122 L 53.31926 76.81469 L 53.12596 77.56738 L 52.93101 78.31928 L 52.73442 79.07036 L 52.5362 79.8206 L 52.33634 80.56997 L 52.33634 80.61061 A 65 37.86108 0 0 1 42.50493 87.23839" />
    <path d="M 29.30429 91.89406 L 29.01895 91.46001 L 28.73286 91.02495 L 28.44602 90.58891 L 28.15845 90.15189 L 27.87014 89.71391 L 27.5811 89.27498 L 27.29135 88.8351 L 27.00089 88.39429 L 26.70972 87.95257 L 26.41786 87.50993 L 26.1253 87.06639 L 25.83207 86.62196 L 25.53816 86.17666 L 25.24358 85.73049 A 65 37.86108 0 0 1 25.23446 85.73288 L 24.94966 86.3124 L 24.66425 86.89112 L 24.37824 87.46901 L 24.09163 88.04607 L 23.80444 88.62228 L 23.51667 89.19762 L 23.22832 89.77209 L 22.9394 90.34568 L 22.64992 90.91836 L 22.35989 91.49012 L 22.06931 92.06096 L 21.77819 92.63086 L 21.48653 93.1998 L 21.19434 93.76777" />
    <path d="M 6.17288 96.93846 A 65 37.86108 0 0 1 5.63913 96.97379 L 5.63913 99.41233" />
    <path d="M -26.99127 15.30285 A 65 37.86108 0 0 1 -61.86597 -5.56707 L -69.74846 -1.09804 L -34.87376 19.77187" />
    <path d="M 6.17288 97.2932 L 6.17288 91.60328" />
    <path d="M 6.17288 97.2932 L 5.63913 96.97379" />
    <path d="M 14.9393 94.78632 L 14.9393 94.76157" />
    <path d="M 63.56682 40.63232 A 72.5 42.22966 0 0 1 70.90211 56.49253" />
    <path d="M 28.89645 91.50122 L 29.21806 91.91754" />
    <path d="M 55.56079 74.97448 L 57.3021 75.55474" />
    <path d="M -45.3753 -86.44703 A 63 36.69612 0 0 1 61.56682 -60.15093 A 63 36.69612 0 0 1 -64.43318 -60.15093 A 63 36.69612 0 0 1 -45.3753 -86.44703 Z" />
    <path d="M 55.56079 74.93383 L 55.56079 74.97448" />
    <path d="M 55.56079 74.93383 L 57.3021 75.5141" />
    <path d="M 55.56079 74.93383 L 55.48507 74.74099 L 55.40889 74.54795 L 55.33227 74.35473 L 55.2552 74.16133 L 55.17768 73.96775 L 55.09971 73.77399 L 55.0213 73.58004 L 54.94244 73.38593 L 54.86313 73.19163 L 54.78338 72.99716 L 54.70318 72.80252 L 54.62254 72.60771 L 54.54146 72.41273 L 54.45993 72.21758" />
    <path d="M 28.89645 91.46058 L 28.89645 91.50122" />
    <path d="M 28.89645 91.46058 L 29.24401 91.91048" />
    <path d="M 28.89645 91.46058 L 28.63576 91.06374 L 28.3744 90.66601 L 28.11238 90.26741 L 27.8497 89.86793 L 27.58637 89.4676 L 27.3224 89.06642 L 27.05778 88.66439 L 26.79253 88.26153 L 26.52666 87.85785 L 26.26016 87.45336 L 25.99305 87.04805 L 25.72533 86.64195 L 25.457 86.23506 L 25.18808 85.8274" />
    <path d="M -69.74846 80.1866 L -69.74846 -1.09804" />
    <path d="M -45.51055 94.69119 L -45.51055 45.9204" />
    <path d="M -57.6785 85.73937 L -57.6785 38.63879" />
    <path d="M 73.56682 53.64757 L 73.56682 61.77603" />
</svg>